<svg width="16" height="16" fill="white" xmlns="http://www.w3.org/2000/svg"><path fill-rule="evenodd" clip-rule="evenodd" d="M12 2H4v1h8V2zm3 7V8h-4.2c.08.32.15.66.18 1H15zm-3-2h-1.6a5.5 5.5 0 00-.66-1H12v1zm0-2H8.66c-.9-.63-1.98-1-3.16-1H12v1zM5.5 4a5.5 5.5 0 00-1.5.2V4h1.5zm5.48 6c-.03.34-.1.68-.19 1H15v-1h-4.02zm-.58 2c-.18.36-.4.7-.66 1H15v-1h-4.6zM10 9.5a4.5 4.5 0 11-9 0 4.5 4.5 0 019 0zM6 6.24c1.21.15 1.9.79 2.02 1.92H6.78c-.1-.34-.24-.57-.44-.7-.1-.06-.2-.1-.34-.14v1.6a5.1 5.1 0 011.48.56c.49.3.74.74.74 1.3 0 1.16-.74 1.82-2.22 1.94v.68H5v-.68c-1.4-.12-2.17-.85-2.3-2.15h1.25c.07.42.23.72.44.89.15.1.35.17.61.21v-1.9a4.77 4.77 0 01-1.42-.52A1.4 1.4 0 012.86 8c0-.56.22-1 .7-1.32A2.9 2.9 0 015 6.21V5.4h1v.84zM4.49 7.4c.13-.08.3-.13.51-.15v1.38a3.38 3.38 0 01-.34-.12c-.34-.16-.5-.34-.5-.56 0-.24.1-.43.33-.55zM6 11.65c.6-.1.91-.36.91-.8 0-.3-.19-.53-.55-.7-.08-.04-.2-.09-.36-.14v1.64z"/></svg>