<svg xmlns:xlink="http://www.w3.org/1999/xlink" xmlns="http://www.w3.org/2000/svg" data-v-2b21b79e="" class="t-w-3.5 t-h-3.5" width="20"  height="20" ><defs><symbol xmlns="http://www.w3.org/2000/svg" fill="none" viewBox="0 0 20 20" id="game"><path fill-rule="evenodd" clip-rule="evenodd" d="M15.42 10.42l-2.5 3.33-2.5-3.33h1.66v-2.5h1.67v2.5h1.67zM9.58 11.25l-2.5-3.33-2.5 3.33h1.67v2.5h1.67v-2.5h1.66z" fill="#6FE991"></path><path d="M1.67 7.08a3.75 3.75 0 013.75-3.75c.76 0 1.14.11 1.34.21.18.09.28.2.45.4l.04.06c.16.22.42.55.86.8.47.28 1.08.4 1.89.4.81 0 1.42-.12 1.9-.4.43-.25.69-.58.85-.8l.04-.05c.17-.21.27-.32.45-.4.2-.1.58-.22 1.34-.22a3.75 3.75 0 013.75 3.75v3.46a6.13 6.13 0 01-6.13 6.13H7.8a6.13 6.13 0 01-6.13-6.13V7.08z" stroke="#6FE991" stroke-width="1.67px" fill="none"></path></symbol></defs><use data-v-2b21b79e="" xlink:href="#game"></use></svg>