<svg xmlns:xlink="http://www.w3.org/1999/xlink" xmlns="http://www.w3.org/2000/svg"  class="t-w-4 t-h-4 t-cursor-pointer t-mr-2" width="12"  height="12" ><defs><symbol xmlns="http://www.w3.org/2000/svg" fill="none" viewBox="0 0 24 24" id="video_ch1"><path fill-rule="evenodd" clip-rule="evenodd" d="M1.895 3A1.895 1.895 0 0 0 0 4.895v14.21C0 20.152.848 21 1.895 21h15.21A1.895 1.895 0 0 0 19 19.105v-1.91l3.648 1.723A.947.947 0 0 0 24 18.062V5.938a.947.947 0 0 0-1.352-.856L19 6.805v-1.91A1.895 1.895 0 0 0 17.105 3H1.895Z" fill="#FFFFFF"></path><path d="M6.77 13.87H5.68c-.087.36-.25.653-.49.88s-.56.34-.96.34a1.55 1.55 0 0 1-.59-.11 1.424 1.424 0 0 1-.46-.32 1.573 1.573 0 0 1-.22-.3 1.856 1.856 0 0 1-.13-.41c-.027-.167-.047-.37-.06-.61s-.02-.54-.02-.9.007-.66.02-.9.033-.44.06-.6c.033-.167.077-.303.13-.41a1.304 1.304 0 0 1 .68-.62c.18-.08.377-.12.59-.12.4 0 .717.113.95.34.24.227.403.52.49.88h1.1c-.127-.713-.417-1.257-.87-1.63s-1.01-.56-1.67-.56c-.373 0-.717.067-1.03.2a2.51 2.51 0 0 0-.84.56 2.028 2.028 0 0 0-.4.55 2.693 2.693 0 0 0-.21.63c-.04.227-.063.48-.07.76a39.167 39.167 0 0 0 0 1.85c.007.273.03.523.07.75.047.227.117.437.21.63.093.193.227.377.4.55.247.247.527.437.84.57.313.127.657.19 1.03.19.32 0 .62-.047.9-.14.287-.093.54-.233.76-.42.227-.187.413-.417.56-.69.153-.273.26-.587.32-.94ZM12.26 16V8.88h-1.08v3.04H8.29V8.88H7.21V16h1.08v-3.11h2.89V16h1.08Zm3.483 0V8.88h-1.02l-1.39 1.2v1.13l1.39-1.22V16h1.02Z" fill="#000"></path></symbol></defs><use  xlink:href="#video_ch1"></use></svg>
