<svg width="140" height="98" fill="none" xmlns="http://www.w3.org/2000/svg"><path fill-rule="evenodd" clip-rule="evenodd" d="M140 55v1h-.02c-.86 23.29-31.86 42-69.98 42C31.88 98 .88 79.29.02 56H0V42h3.26C12.23 24.6 38.72 12 70 12c31.28 0 57.77 12.6 66.74 30H140v13z" fill="#164752"/><path fill-rule="evenodd" clip-rule="evenodd" d="M140 55v1h-.02c-.86 23.29-31.86 42-69.98 42C31.88 98 .88 79.29.02 56H0V42h3.26C12.23 24.6 38.72 12 70 12c31.28 0 57.77 12.6 66.74 30H140v13z" fill="url(#paint0_linear)"/><path fill-rule="evenodd" clip-rule="evenodd" d="M140 56V44h-2v21.25a27.69 27.69 0 001.98-9.25h.02zm-17 27.1V69h-20v23.93a74.99 74.99 0 0020-9.84zM81 97.46V84H59v13.47a114.02 114.02 0 0022 0zm-44-4.54V69H17v14.1a74.99 74.99 0 0020 9.83zM2 65.25V44H0v12h.02c.12 3.18.8 6.27 1.98 9.25z" fill="url(#paint1_radial)"/><ellipse cx="70" cy="43" rx="70" ry="43" fill="#164752"/><path fill-rule="evenodd" clip-rule="evenodd" d="M137.71 53.94l-5.51-2.35A21.7 21.7 0 00134 43c0-2.92-.61-5.79-1.8-8.59l5.51-2.35A27.7 27.7 0 01140 43c0 3.78-.8 7.45-2.29 10.94zm-14.4-38.81L119.8 20a68.55 68.55 0 00-18.47-9.16l1.9-5.7a74.54 74.54 0 0120.08 9.99zM81.24.55l-.6 5.97a107.98 107.98 0 00-21.29 0L58.76.55a113.98 113.98 0 0122.48 0zm-44.46 4.6l1.89 5.69A68.56 68.56 0 0020.2 20l-3.5-4.87a74.53 74.53 0 0120.08-9.99zm-34.5 26.9A27.7 27.7 0 000 43c0 3.78.8 7.45 2.29 10.94L7.8 51.6A21.7 21.7 0 016 43c0-2.92.61-5.79 1.8-8.59L2.3 32.06zM16.7 70.88L20.2 66a68.56 68.56 0 0018.47 9.16l-1.9 5.7a74.53 74.53 0 01-20.08-9.99zm42.07 14.58l.6-5.97a107.97 107.97 0 0021.29 0l.59 5.97a113.96 113.96 0 01-22.48 0zm44.46-4.6a74.54 74.54 0 0020.09-9.98L119.8 66a68.55 68.55 0 01-18.47 9.16l1.9 5.7z" fill="#fff"/><ellipse cx="70" cy="43" rx="63" ry="36" fill="#fff"/><path d="M126.5 43c0 8.64-5.98 16.73-16.25 22.75-10.22 6-24.45 9.75-40.25 9.75s-30.03-3.76-40.25-9.75C19.48 59.73 13.5 51.64 13.5 43s5.98-16.73 16.25-22.75c10.22-6 24.45-9.75 40.25-9.75s30.03 3.76 40.25 9.75C120.52 26.27 126.5 34.36 126.5 43z" stroke="#164752" stroke-width="3"/><path fill-rule="evenodd" clip-rule="evenodd" d="M117.94 58.2l-1.41-1.4c4.22-4.23 6.47-8.94 6.47-13.8 0-4.86-2.25-9.57-6.47-13.8l1.41-1.4c4.5 4.49 7.06 9.67 7.06 15.2 0 5.53-2.56 10.71-7.06 15.2zM87.13 13.54l-.36 1.97A92.63 92.63 0 0070 14c-5.86 0-11.5.53-16.77 1.5l-.36-1.97C58.27 12.53 64.02 12 70 12c5.98 0 11.74.54 17.13 1.53zM22.06 27.8C17.56 32.3 15 37.47 15 43c0 5.53 2.56 10.71 7.06 15.2l1.41-1.4C19.25 52.56 17 47.85 17 43c0-4.86 2.25-9.57 6.47-13.8l-1.41-1.4zm30.81 44.68C58.27 73.47 64.02 74 70 74c5.98 0 11.74-.54 17.13-1.53l-.36-1.97C81.5 71.47 75.87 72 70 72c-5.86 0-11.5-.53-16.77-1.5l-.36 1.97z" fill="#164752"/><path d="M118 43c0 6.63-5.08 12.86-13.82 17.5C95.48 65.12 83.4 68 70 68c-13.4 0-25.48-2.88-34.18-7.5C27.08 55.86 22 49.63 22 43c0-6.63 5.08-12.86 13.82-17.5C44.52 20.88 56.6 18 70 18c13.4 0 25.48 2.88 34.18 7.5C112.92 30.14 118 36.37 118 43z" stroke="#000" stroke-opacity=".2" stroke-width="2"/><ellipse cx="70" cy="43" rx="70" ry="43" fill="url(#paint2_linear)"/><defs><linearGradient id="paint0_linear" x1="140" y1="58" x2="0" y2="58" gradientUnits="userSpaceOnUse"><stop stop-opacity=".1"/><stop offset=".49" stop-color="#fff" stop-opacity=".4"/><stop offset="1" stop-opacity=".1"/></linearGradient><linearGradient id="paint2_linear" x1="70" y1="0" x2="70" y2="86" gradientUnits="userSpaceOnUse"><stop stop-color="#fff"/><stop offset=".49" stop-color="#fff" stop-opacity="0"/><stop offset="1" stop-opacity=".1"/></linearGradient><radialGradient id="paint1_radial" cx="0" cy="0" r="1" gradientUnits="userSpaceOnUse" gradientTransform="matrix(0 27 -70 0 70 71)"><stop stop-color="#fff"/><stop offset="1" stop-color="#ECECEC"/></radialGradient></defs></svg>